<?xml version="1.0" encoding="utf-8"?><svg xmlns="http://www.w3.org/2000/svg" xmlns:xlink="http://www.w3.org/1999/xlink"><symbol viewBox="0 0 10 8" id="arrow-down" xmlns="http://www.w3.org/2000/svg"><path d="M4 7 .103.25h7.794L4 7z"/></symbol><symbol viewBox="0 0 19 34" id="arrow-left" xmlns="http://www.w3.org/2000/svg"><path d="M19 34 6.914 21.914a2 2 0 0 1 0-2.828L19 7"/></symbol><symbol viewBox="0 0 18 33" id="arrow-right" xmlns="http://www.w3.org/2000/svg"><path d="m5 6 12.086 12.086a2 2 0 0 1 0 2.828L5 33"/></symbol><symbol viewBox="0 0 10 8" id="arrow-up" xmlns="http://www.w3.org/2000/svg"><path d="m5 .5 3.897 6.75H1.103L5 .5z"/></symbol><symbol viewBox="0 0 38 38" id="bullet-board" xmlns="http://www.w3.org/2000/svg"><path d="M37.548 3.452a1.015 1.015 0 0 0-.81-.294c-.126.012-3.117.296-7.22 1.673C16.166 8.943 7.33 21.89 3.221 31.256c-.259.618.264 1.446 1.046 1.378l4.538-.442-.441 4.538c-.049.653.585 1.34 1.378 1.046 16.305-7.429 26.25-18.8 28.1-33.514.027-.3-.08-.597-.294-.81zM24.41 25.788a60.09 60.09 0 0 1-5.219 4.236V12.721a32.621 32.621 0 0 1 5.22-3.476v16.543zM14.494 33.1a50.852 50.852 0 0 1-3.939 2.097l.393-4.036c.058-.525-.428-1.19-1.11-1.11l-4.035.392c1.363-2.891 5.034-9.624 11.356-15.89v16.88a57.998 57.998 0 0 1-2.665 1.667zm19.73-22.208c-1.194 3.537-3.512 8.643-7.781 12.953V8.232c2.78-1.343 7.03-2.547 9.19-2.866a37.06 37.06 0 0 1-1.41 5.525z"/></symbol><symbol viewBox="0 0 38 33" id="bullet-delivery" xmlns="http://www.w3.org/2000/svg"><path d="M29.355 23.979a4.378 4.378 0 0 0-4.373 4.373 4.378 4.378 0 0 0 4.373 4.372 4.378 4.378 0 0 0 4.373-4.372 4.378 4.378 0 0 0-4.373-4.373zm0 6.559a2.189 2.189 0 0 1-2.186-2.186c0-1.206.98-2.187 2.186-2.187s2.187.98 2.187 2.187c0 1.205-.98 2.186-2.187 2.186zm-14.941-6.559a4.378 4.378 0 0 0-4.373 4.373 4.378 4.378 0 0 0 4.373 4.372 4.378 4.378 0 0 0 4.373-4.372 4.378 4.378 0 0 0-4.373-4.373zm0 6.559a2.189 2.189 0 0 1-2.186-2.186c0-1.206.98-2.187 2.186-2.187s2.187.98 2.187 2.187c0 1.205-.98 2.186-2.187 2.186zM32.3 11.462a1.094 1.094 0 0 0-.977-.602h-5.758v2.186h5.084l2.977 5.921 1.954-.982-3.28-6.523z"/><path d="M26.076 27.295h-8.273v2.186h8.273v-2.186zm-14.942 0h-3.79a1.093 1.093 0 1 0 0 2.186h3.79a1.093 1.093 0 1 0 0-2.186zm26.483-6.684-2.15-2.77a1.092 1.092 0 0 0-.864-.422h-7.944V9.766c0-.604-.49-1.093-1.094-1.093H7.345a1.093 1.093 0 1 0 0 2.187h17.127v7.652c0 .604.49 1.093 1.093 1.093h8.503l1.592 2.051v5.639h-3.025a1.093 1.093 0 1 0 0 2.186h4.118c.604 0 1.093-.49 1.093-1.093v-7.106c0-.243-.08-.479-.23-.67zm-26.555 1.145h-5.03a1.093 1.093 0 1 0 0 2.186h5.03a1.093 1.093 0 1 0 0-2.186zm2.514-4.301H4.247a1.093 1.093 0 0 0 0 2.187h9.33a1.093 1.093 0 1 0 0-2.187z"/><path d="M15.362 13.155h-9.33a1.093 1.093 0 1 0 0 2.187h9.33a1.093 1.093 0 1 0 0-2.187z"/></symbol><symbol viewBox="0 0 35 35" id="bullet-material" xmlns="http://www.w3.org/2000/svg"><g clip-path="url(#ga)"><path d="M33.83 12.418h-7.274l.003-.019a8.25 8.25 0 0 0 2.014-2.575 1.016 1.016 0 0 0-.91-1.471h-1.568a8.992 8.992 0 0 0-1.484-2.656 8.246 8.246 0 0 0-.397-3.241 1.016 1.016 0 0 0-1.683-.397L21.419 3.17a8.983 8.983 0 0 0-2.92-.827C17.732 1.44 16.848.724 15.922.261a1.017 1.017 0 0 0-1.471.91v1.636a8.992 8.992 0 0 0-2.655 1.484 8.246 8.246 0 0 0-3.242.397 1.016 1.016 0 0 0-.397 1.683L9.27 7.482a8.983 8.983 0 0 0-.828 2.923 8.283 8.283 0 0 0-1.705 2.013H1.17c-.561 0-1.016.455-1.016 1.017V17.5c0 .561.455 1.016 1.016 1.016h1.084V33.83c0 .561.455 1.016 1.017 1.016h4.065c.562 0 1.017-.455 1.017-1.016v-3.445l9.147-3.66 9.147 3.66v3.445c0 .561.455 1.016 1.017 1.016h4.065c.562 0 1.017-.455 1.017-1.016V18.516h1.084c.561 0 1.016-.455 1.016-1.016v-4.066c0-.56-.455-1.016-1.016-1.016zm-23.79-.695c.232-.18.375-.45.392-.743.068-1.135.392-2.2.962-3.168.236-.4.171-.908-.156-1.235l-.274-.274c.34-.01.684.006 1.031.05.291.037.584-.053.803-.248a7.01 7.01 0 0 1 2.924-1.563c.448-.116.762-.52.762-.984v-.402c.241.238.474.5.695.786.18.232.45.374.743.392a7 7 0 0 1 3.168.962c.4.236.907.171 1.235-.157l.274-.273c.01.34-.006.684-.05 1.031-.037.29.053.583.248.803a7.011 7.011 0 0 1 1.563 2.924c.116.448.52.761.984.761h.383a6.63 6.63 0 0 1-.767.696c-.232.18-.375.45-.392.743a7.858 7.858 0 0 1-.06.594h-4.134A3.053 3.053 0 0 0 17.5 8.352a3.053 3.053 0 0 0-2.874 4.066H9.273c.234-.248.49-.48.767-.695zm8.476-.321a1.018 1.018 0 0 1-2.032 0 1.018 1.018 0 0 1 2.032 0zM6.32 32.813H4.287V18.516H6.32v14.297zm2.033-4.618v-5.128l6.41 2.564-6.41 2.564zm18.294 0-6.41-2.564 6.41-2.564v5.128zm0-7.318-9.147 3.66-9.147-3.66v-2.36h18.294v2.36zm4.066 11.936H28.68V18.516h2.033v14.297zm2.1-16.33H2.187v-2.032h30.626v2.033z"/></g><defs><clipPath id="ga"><path transform="translate(.154 .154)" d="M0 0h34.692v34.692H0z"/></clipPath></defs></symbol><symbol viewBox="0 0 26 24" id="burger-menu" xmlns="http://www.w3.org/2000/svg"><path d="M23.942 0H2.058C.867 0 0 .867 0 2.058v.325c0 1.084.867 1.95 2.058 1.95H24.05a2.057 2.057 0 0 0 2.058-2.058v-.217C26 .867 25.133 0 23.942 0zm0 9.75H2.058A2.057 2.057 0 0 0 0 11.808v.325c0 1.084.867 2.059 2.058 2.059H24.05a2.057 2.057 0 0 0 2.058-2.059v-.325C26 10.725 25.133 9.75 23.942 9.75zm0 9.75H2.058A2.057 2.057 0 0 0 0 21.558v.325c0 1.084.867 2.059 2.058 2.059H24.05a2.057 2.057 0 0 0 2.058-2.059v-.325C26 20.475 25.133 19.5 23.942 19.5z"/></symbol><symbol viewBox="0 0 20 20" id="close" xmlns="http://www.w3.org/2000/svg"><g opacity=".7" clip-path="url(#ia)"><path d="m13.556 10 5.777-5.778c.89-.889.89-2.222 0-3L18.89.778c-.889-.89-2.222-.89-3 0L10 6.444 4.222.667c-.889-.89-2.222-.89-3.11 0l-.445.444c-.89.889-.89 2.222 0 3L6.444 10 .667 15.778c-.89.889-.89 2.222 0 3l.444.555c.889.89 2.222.89 3 0L10 13.556l5.778 5.777c.889.89 2.222.89 3 0l.444-.444c.89-.889.89-2.222 0-3L13.556 10z"/></g><defs><clipPath id="ia"><path d="M0 0h20v20H0z"/></clipPath></defs></symbol><symbol viewBox="0 0 24 24" id="fb" xmlns="http://www.w3.org/2000/svg"><g clip-path="url(#ja)"><path d="M24 22.692c0 .72-.589 1.308-1.308 1.308h-6.147v-9.286h3.139l.458-3.597h-3.597V8.828c0-1.046.261-1.765 1.766-1.765h1.896v-3.27c-.327-.065-1.439-.13-2.812-.13-2.746 0-4.643 1.7-4.643 4.773v2.681H9.613v3.597h3.139V24H1.308C.588 24 0 23.411 0 22.692V1.308C0 .588.589 0 1.308 0h21.384C23.412 0 24 .589 24 1.308v21.384z"/></g><defs><clipPath id="ja"><path d="M0 0h24v24H0z"/></clipPath></defs></symbol><symbol viewBox="0 0 44 68" id="feat-1" xmlns="http://www.w3.org/2000/svg"><path d="M41.836 60.031h-5.977v-4.25h2.663a1.992 1.992 0 1 0 0-3.984H35.86v-3.984h5.32a1.992 1.992 0 0 0 0-3.985h-5.32v-3.984h2.663a1.992 1.992 0 0 0 0-3.985H35.86v-3.984h5.32a1.992 1.992 0 0 0 0-3.984h-5.32v-3.985h2.663a1.992 1.992 0 1 0 0-3.984H35.86v-3.985h5.32a1.992 1.992 0 0 0 0-3.984h-5.32V7.97h2.663a1.992 1.992 0 0 0 0-3.985H35.86V1.992a1.992 1.992 0 0 0-3.984 0v58.04h-7.193L25.778 42.5h.127c1.1 0 1.992-.892 1.992-1.992V27.223c0-4.422-2.899-8.179-6.896-9.474a5.978 5.978 0 0 0 2.918-5.132 5.983 5.983 0 0 0-5.976-5.976 5.983 5.983 0 0 0-5.977 5.976 5.979 5.979 0 0 0 2.916 5.13c-3.999 1.294-6.9 5.052-6.9 9.476v13.285c0 1.1.892 1.992 1.992 1.992h.12l1.097 17.531H1.992c-1.1 0-1.992.892-1.992 1.992v3.985a1.992 1.992 0 0 0 3.984 0v-1.992h35.86v1.992a1.992 1.992 0 1 0 3.984 0v-3.985c0-1.1-.892-1.992-1.992-1.992zM17.943 10.625c1.098 0 1.992.894 1.992 1.992a1.994 1.994 0 0 1-1.992 1.992 1.994 1.994 0 0 1-1.992-1.992c0-1.098.893-1.992 1.992-1.992zm-5.977 16.598a5.98 5.98 0 0 1 5.974-5.973 5.98 5.98 0 0 1 5.973 5.973v11.293H11.966V27.223zm2.12 15.277h7.7L20.69 60.031h-5.507L14.087 42.5z"/></symbol><symbol viewBox="0 0 66 66" id="feat-2" xmlns="http://www.w3.org/2000/svg"><path d="M35.875 32.181V21.817h4.15c9.893 0 17.942-8.049 17.942-17.942 0-1.035-.84-1.875-1.875-1.875h-6.027C43.037 2 36.94 6.063 34 11.962 31.058 6.062 24.962 2 17.933 2h-6.025c-1.035 0-1.875.84-1.875 1.875 0 9.893 8.049 17.942 17.942 17.942h4.15V32.18C15.325 33.152 2 47.081 2 64.125 2 65.16 2.84 66 3.875 66h60.25C65.16 66 66 65.16 66 64.125c0-17.044-13.325-30.973-30.125-31.944zM50.065 5.75h4.028c-.92 6.942-6.879 12.317-14.068 12.317h-4.027c.92-6.943 6.877-12.317 14.067-12.317zm-22.09 12.317c-7.19 0-13.148-5.375-14.068-12.317h4.026c7.19 0 13.148 5.375 14.069 12.317h-4.027zM5.81 62.25c.929-14.33 11.435-22.005 18.282-24.584v4.712c0 .572-.223 1.11-.628 1.515l-6.025 6.025a5.898 5.898 0 0 0 0 8.33l4.001 4.002H5.81zm20.933 0-6.652-6.653a2.14 2.14 0 0 1 0-3.028l6.025-6.025a5.853 5.853 0 0 0 1.726-4.166v-5.83A28.366 28.366 0 0 1 34 35.876c4.914 0 9.677 1.259 13.906 3.659L37.522 49.918a5.888 5.888 0 0 0 0 8.33l4.001 4.002h-14.78zm20.084 0-6.653-6.653a2.14 2.14 0 0 1 0-3.028L51.1 41.643A28.253 28.253 0 0 1 62.188 62.25H46.827z"/></symbol><symbol viewBox="0 0 68 68" id="feat-3" xmlns="http://www.w3.org/2000/svg"><path d="M67.58 64.784c-.105-.135-2.63-3.336-7.98-6.493-2.61-1.541-6.209-3.24-10.814-4.482a69.333 69.333 0 0 0 2.564-13.706c.541-6.407.157-12.667-1.142-18.607-1.629-7.443-4.704-14.392-9.14-20.655a1.992 1.992 0 0 0-3.251 0 57.452 57.452 0 0 0-3.787 6.122A57.406 57.406 0 0 0 30.243.84a1.992 1.992 0 0 0-3.251 0c-4.437 6.262-7.512 13.212-9.14 20.655-1.3 5.94-1.684 12.2-1.143 18.607a69.254 69.254 0 0 0 2.646 13.981c-4.245 1.204-7.67 2.76-10.234 4.18C3.467 61.392.623 64.55.504 64.682A1.992 1.992 0 0 0 1.992 68h64.016a1.992 1.992 0 0 0 1.572-3.216zM20.963 26.958l13.363-9.08a52.198 52.198 0 0 1 1.046 3.84L20.53 31.804c.073-1.56.212-3.18.433-4.846zm1.01-5.504a52.327 52.327 0 0 1 6.646-15.88 52.556 52.556 0 0 1 4.322 8.428l-10.967 7.452zm-1.477 15.19L36.18 25.987c.645 4.373.776 8.924.388 13.64a65.613 65.613 0 0 1-2.244 12.389 57.109 57.109 0 0 0-11.085 1.126 65.327 65.327 0 0 1-2.558-13.375 61.201 61.201 0 0 1-.184-3.123zm14.177 19.353c10.801 0 18.316 3.054 22.718 5.617a33.152 33.152 0 0 1 3.58 2.402H7.435c4.744-3.346 13.779-8.019 27.24-8.019zm4.771-50.423c6.314 9.995 8.986 21.436 7.947 34.053a65.47 65.47 0 0 1-2.508 13.298 54.31 54.31 0 0 0-6.45-.792 69.732 69.732 0 0 0 2.092-12.03c.541-6.407.157-12.667-1.142-18.607a56.366 56.366 0 0 0-3.169-9.964 52.205 52.205 0 0 1 3.23-5.958z"/></symbol><symbol viewBox="0 0 24 24" id="inst" xmlns="http://www.w3.org/2000/svg"><g clip-path="url(#na)"><path d="M21.123 0H2.877C1.307 0 0 1.243 0 2.812v18.376C0 22.758 1.308 24 2.877 24h18.246C22.693 24 24 22.758 24 21.188V2.812C24 1.242 22.692 0 21.123 0zm-3.859 3.728c0-.393.327-.72.72-.72h2.288c.393 0 .72.327.72.72V5.95c0 .392-.327.72-.72.72H18.05a.726.726 0 0 1-.72-.72l-.065-2.223zM12.033 7.39c2.55 0 4.643 2.027 4.643 4.577s-2.093 4.578-4.643 4.578-4.643-2.027-4.643-4.578c0-2.485 2.092-4.577 4.643-4.577zm9.678 13.602c0 .392-.327.72-.72.72H3.009a.726.726 0 0 1-.72-.72V9.744h2.944c-.393.588-.524 1.635-.524 2.289 0 3.989 3.27 7.259 7.325 7.259 4.054 0 7.324-3.27 7.324-7.26 0-.653-.065-1.7-.589-2.288h3.009l-.066 11.248z"/></g><defs><clipPath id="na"><path d="M0 0h24v24H0z"/></clipPath></defs></symbol><symbol viewBox="0 0 481 4575" id="param" xmlns="http://www.w3.org/2000/svg"><path d="M0 0h91v91H0z"/><g clip-path="url(#oa)"><path d="M-619-1369H481v5944H-619z"/><path d="M-618-66H479v642H-618z"/><rect rx="4"/><path d="m15.225 72.141.07 2.859h-1.891l.084-2.69-.07-4.862h-3.251l-.07 4.694.07 2.858H8.275l.084-2.69-.084-6.334h7.048l-.098 6.165zM24.765 75h-1.933l-.224-1.177-.239-.84-1.765-.043-1.556.042-.238.743L18.572 75h-1.878l3.055-9.024h2.256L24.765 75zm-2.802-3.489-1.065-3.755h-.126l-1.233 3.755 1.205.028 1.219-.028zm7.685-5.549c.944 0 1.668.238 2.172.715.514.476.77 1.158.77 2.046 0 .681-.149 1.28-.448 1.793a3.034 3.034 0 0 1-1.289 1.177c-.551.28-1.2.42-1.948.42h-.896v.028L28.093 75h-1.906l.098-2.69-.098-6.334 3.461-.014zm-.322 4.764c.86-.243 1.289-.854 1.289-1.835 0-.505-.13-.878-.392-1.121-.253-.252-.645-.388-1.177-.407l-.953.056-.056 3.251 1.289.056zM40.46 75h-1.934l-.224-1.177-.238-.84-1.766-.043-1.555.042-.239.743L34.267 75H32.39l3.054-9.024H37.7L40.46 75zm-2.803-3.489-1.065-3.755h-.126l-1.233 3.755 1.205.028 1.22-.028zM51.355 75h-1.682l-.14-2.732-.322-3.475h-.14l-2.018 5.254h-1.471l-1.836-5.254h-.126l-.35 3.292L43.072 75h-1.597l.91-9.024h2.187l.364 1.331 1.43 4.274h.125l1.5-4.274.406-1.33h2.144L51.355 75zm7.697-1.57.112.155L59.037 75h-5.66l.098-2.69-.098-6.334h5.716l.113.154-.14 1.416-2.158-.07-1.626.014-.042 2.171 1.555.028 1.472-.042.112.14-.126 1.416-1.598-.042-1.443.014-.014.966.042 1.36 1.584.014 2.227-.084zm7.55-7.3-.111 1.416-1.696-.085h-.56l-.07 4.68.084 2.859h-1.906l.098-2.69-.07-4.849h-.56l-1.724.085-.126-.155.126-1.415h6.404l.112.154zm4.754-.168c.943 0 1.667.238 2.172.715.514.476.77 1.158.77 2.046 0 .681-.149 1.28-.448 1.793a3.033 3.033 0 0 1-1.289 1.177c-.551.28-1.2.42-1.948.42h-.897v.028L69.801 75h-1.906l.098-2.69-.098-6.334 3.461-.014zm-.322 4.764c.86-.243 1.289-.854 1.289-1.835 0-.505-.131-.878-.393-1.121-.252-.252-.644-.388-1.177-.407l-.952.056-.056 3.251 1.289.056zm8.118-1.289c.84 0 1.485.215 1.933.645.449.42.673 1.027.673 1.821 0 .972-.322 1.733-.967 2.284-.644.542-1.541.813-2.69.813h-2.494l.098-2.676-.098-6.348h1.92l-.057 3.461h1.682zm5.478 2.704L84.715 75h-1.906l.098-2.69-.098-6.334h1.934l-.113 6.165zm-6.025 1.542c.383-.075.677-.243.883-.505.206-.27.308-.611.308-1.022 0-.44-.112-.776-.336-1.01-.215-.242-.528-.364-.939-.364l-1.065.028-.028 1.331.042 1.486 1.135.056z"/><g clip-path="url(#ob)"><path d="m45.213 17.326-6.67 6.67a1.113 1.113 0 0 0 0 1.574l3.15 3.149c.264.263.626.367.968.311v3.63h-3.63a1.113 1.113 0 0 0-.312-.967l-3.149-3.15a1.113 1.113 0 0 0-1.574 0l-6.67 6.67a1.113 1.113 0 0 0 0 1.574l6.67 6.67c.434.434 1.14.434 1.574 0l3.15-3.15c.257-.257.368-.62.31-.967h3.63v3.63a1.111 1.111 0 0 0-.967.311l-3.15 3.15a1.113 1.113 0 0 0 0 1.574l6.67 6.669c.435.435 1.14.435 1.575 0l6.669-6.67a1.114 1.114 0 0 0 0-1.574l-3.15-3.149a1.11 1.11 0 0 0-.967-.311v-3.63h3.63c-.057.348.054.71.312.967l3.149 3.15c.434.434 1.14.434 1.574 0l6.67-6.67a1.113 1.113 0 0 0 0-1.574l-6.67-6.67a1.114 1.114 0 0 0-1.574 0l-3.15 3.15c-.257.258-.368.62-.31.967h-3.63v-3.63c.34.056.703-.047.967-.31l3.149-3.15a1.113 1.113 0 0 0 0-1.574l-6.67-6.67a1.113 1.113 0 0 0-1.574 0zm4.308 9.031-.507-.506c-.698-.699-1.9-.204-1.9.787v7.135c0 .615.498 1.114 1.113 1.114h7.135c.989 0 1.488-1.2.788-1.9l-.507-.507 1.575-1.575L62.313 36l-5.095 5.095-1.575-1.575.507-.506c.698-.699.203-1.9-.788-1.9h-7.135c-.615 0-1.113.498-1.113 1.113v7.135c0 .992 1.202 1.485 1.9.787l.506-.506 1.575 1.575L46 52.312l-5.094-5.095 1.574-1.574.507.506c.698.699 1.9.204 1.9-.787v-7.135c0-.615-.498-1.114-1.113-1.114h-7.136c-.988 0-1.487 1.2-.787 1.9l.507.507-1.575 1.575L29.688 36l5.095-5.095 1.575 1.575-.507.506c-.699.7-.203 1.9.787 1.9h7.136c.615 0 1.113-.498 1.113-1.113v-7.135c0-.988-1.2-1.488-1.9-.787l-.507.506-1.574-1.574L46 19.688l5.095 5.095-1.574 1.574z"/></g></g><defs><clipPath id="oa"><path transform="translate(-619 -1369)" d="M0 0h1100v5944H0z"/></clipPath><clipPath id="ob"><path transform="translate(27 17)" d="M0 0h38v38H0z"/></clipPath></defs></symbol><symbol viewBox="0 0 24 24" id="pause" xmlns="http://www.w3.org/2000/svg"><path d="M2 6c0-1.886 0-2.828.586-3.414C3.172 2 4.114 2 6 2c1.886 0 2.828 0 3.414.586C10 3.172 10 4.114 10 6v12c0 1.886 0 2.828-.586 3.414C8.828 22 7.886 22 6 22c-1.886 0-2.828 0-3.414-.586C2 20.828 2 19.886 2 18V6zm12 0c0-1.886 0-2.828.586-3.414C15.172 2 16.114 2 18 2c1.886 0 2.828 0 3.414.586C22 3.172 22 4.114 22 6v12c0 1.886 0 2.828-.586 3.414C20.828 22 19.886 22 18 22c-1.886 0-2.828 0-3.414-.586C14 20.828 14 19.886 14 18V6z"/></symbol><symbol viewBox="0 0 13 15" id="phone" xmlns="http://www.w3.org/2000/svg"><g clip-path="url(#ra)"><path d="M12.669 13.155c-.235.5-.704.751-1.173 1.002-.587.376-1.056.501-1.642.501-.821 0-1.643-.376-2.346-.626-.587-.251-1.056-.502-1.643-.752-1.642-1.128-3.519-3.133-4.457-4.761a11.785 11.785 0 0 1-.821-1.755C.352 5.887 0 5.136 0 4.134c0-.627.117-1.254.47-1.88.234-.501.468-1.002.938-1.253.352 0 .938-.125 1.29-.125h.235c.234.125.352.5.469.751.234.627.586 1.128.821 1.755.235.25.47.5.47.751 0 .627-1.643 1.504-1.643 2.005 0 .25.235.626.352.877.938 1.754 2.111 3.007 3.754 4.01.234.125.586.375.82.375.47 0 1.291-1.754 1.878-1.754.234 0 .469.25.704.501.469.376 1.055.627 1.524 1.003.235.125.587.25.704.501v.25c.118.251 0 .878-.117 1.254z"/></g><defs><clipPath id="ra"><path transform="translate(0 .876)" d="M0 0h12.904v13.782H0z"/></clipPath></defs></symbol><symbol viewBox="0 0 12 12" id="phone-black" xmlns="http://www.w3.org/2000/svg"><path d="M11.974 9.298c-.034-.102-.25-.253-.648-.452a19.972 19.972 0 0 0-.46-.256 32.7 32.7 0 0 1-.997-.562 11.171 11.171 0 0 0-.213-.15 2.395 2.395 0 0 0-.303-.183.558.558 0 0 0-.242-.06c-.114.001-.256.082-.426.244a4.15 4.15 0 0 0-.469.528c-.142.19-.293.367-.452.529-.159.162-.29.243-.392.243a.58.58 0 0 1-.191-.043 1.989 1.989 0 0 1-.175-.072c-.04-.02-.108-.06-.205-.12a5.297 5.297 0 0 0-.162-.098 8.956 8.956 0 0 1-2.002-1.483A8.951 8.951 0 0 1 3.154 5.36a4.945 4.945 0 0 0-.098-.162c-.06-.096-.1-.164-.12-.204a1.848 1.848 0 0 1-.072-.175.577.577 0 0 1-.043-.192c0-.102.081-.232.243-.392a4.96 4.96 0 0 1 .529-.451c.19-.142.366-.298.528-.469.162-.17.243-.312.243-.426 0-.08-.02-.16-.06-.243a2.37 2.37 0 0 0-.183-.302l-.15-.214a18.685 18.685 0 0 1-.263-.455c-.091-.162-.19-.343-.299-.542a20.244 20.244 0 0 0-.255-.46c-.2-.397-.35-.613-.452-.647A.477.477 0 0 0 2.523 0c-.153 0-.354.028-.6.085a3.375 3.375 0 0 0-.585.18C1.054.382.753.73.435 1.303.145 1.838 0 2.366 0 2.889a3.291 3.291 0 0 0 .137.938c.05.181.092.316.123.404.031.088.09.246.175.473.085.228.136.367.153.418a7.72 7.72 0 0 0 .708 1.491c.448.728 1.06 1.48 1.836 2.255.776.775 1.527 1.387 2.254 1.836.438.273.935.509 1.492.708.051.017.19.068.417.153.228.085.385.144.473.175.088.031.223.072.405.124a3.272 3.272 0 0 0 .938.136c.522 0 1.05-.145 1.585-.435.574-.318.92-.619 1.04-.903a3.35 3.35 0 0 0 .178-.584c.057-.247.086-.447.086-.6 0-.08-.009-.14-.026-.18z"/></symbol><symbol viewBox="0 0 12 16" id="play" xmlns="http://www.w3.org/2000/svg"><path d="m11.407 9.429-8.46 6.74c-.808.641-1.998.065-1.998-.967V1.722c0-1.03 1.19-1.607 1.998-.965l8.46 6.74c.614.492.614 1.44 0 1.933z"/></symbol><symbol viewBox="0 0 56 39" id="surf-board-logo" xmlns="http://www.w3.org/2000/svg"><path d="M12.575 18.552c-1.008 0-1.896-.176-2.664-.528-.768-.352-1.36-.84-1.776-1.464-.416-.64-.624-1.376-.624-2.208 0-.704.144-1.344.432-1.92a3.703 3.703 0 0 1 1.2-1.368 3 3 0 0 1 1.68-.504c.56 0 1.032.144 1.416.432.384.272.624.656.72 1.152-.832 0-1.496.224-1.992.672-.496.432-.744 1.024-.744 1.776 0 .688.208 1.24.624 1.656.416.416.968.624 1.656.624.848 0 1.544-.28 2.088-.84.56-.576.84-1.296.84-2.16 0-.752-.208-1.464-.624-2.136-.416-.672-1.04-1.488-1.872-2.448-.864-.992-1.52-1.84-1.968-2.544a4.488 4.488 0 0 1-.648-2.352c0-.832.232-1.576.696-2.232.464-.672 1.104-1.2 1.92-1.584C13.751.192 14.671 0 15.695 0c1.296 0 2.328.304 3.096.912.784.608 1.176 1.424 1.176 2.448 0 .672-.168 1.216-.504 1.632a1.615 1.615 0 0 1-1.32.624c-.608 0-1.096-.248-1.464-.744.304-.224.544-.52.72-.888.176-.368.264-.752.264-1.152 0-.512-.152-.92-.456-1.224-.304-.304-.72-.456-1.248-.456-.64 0-1.168.232-1.584.696-.4.448-.6 1.024-.6 1.728 0 .64.184 1.24.552 1.8.368.544.944 1.248 1.728 2.112.64.688 1.152 1.28 1.536 1.776.4.496.736 1.072 1.008 1.728.288.64.432 1.336.432 2.088a4.78 4.78 0 0 1-.864 2.784c-.56.832-1.336 1.488-2.328 1.968-.976.48-2.064.72-3.264.72zm10.184-.288c-.768 0-1.392-.24-1.872-.72-.464-.48-.696-1.2-.696-2.16 0-.4.064-.92.192-1.56l1.632-7.704h3.456l-1.728 8.16c-.048.24-.072.464-.072.672 0 .656.24.984.72.984.448 0 .832-.184 1.152-.552.32-.384.576-.904.768-1.56l1.632-7.704h3.456l-1.728 8.16a2.97 2.97 0 0 0-.096.768c0 .32.072.552.216.696.16.128.416.192.768.192.448 0 .832-.192 1.152-.576.336-.384.6-.896.792-1.536h1.008c-.592 1.728-1.328 2.904-2.208 3.528-.864.608-1.736.912-2.616.912-.688 0-1.24-.192-1.656-.576-.4-.384-.64-.952-.72-1.704-.544.88-1.12 1.48-1.728 1.8-.592.32-1.2.48-1.824.48zM34.132 6.12h3.456l-.312 1.488c.544-.48 1.032-.848 1.464-1.104a2.855 2.855 0 0 1 1.44-.384c.512 0 .912.176 1.2.528.304.352.456.776.456 1.272 0 .464-.152.872-.456 1.224-.304.352-.728.528-1.272.528-.352 0-.592-.08-.72-.24-.112-.176-.2-.424-.264-.744a2.203 2.203 0 0 0-.144-.456c-.048-.096-.136-.144-.264-.144-.336 0-.624.072-.864.216-.224.128-.52.36-.888.696l-1.92 9.12h-3.456l2.544-12zm5.231 18a2.874 2.874 0 0 1-1.968-.744 2.297 2.297 0 0 1-.864-1.848c0-.688.176-1.256.528-1.704a3.84 3.84 0 0 1 1.368-1.08c.56-.256 1.304-.528 2.232-.816l2.904-13.704c.32-1.536.88-2.6 1.68-3.192.816-.592 1.712-.888 2.688-.888.752 0 1.408.248 1.968.744.576.48.864 1.096.864 1.848 0 .368-.024.696-.072.984h-1.128c.032-.352.048-.568.048-.648 0-.256-.088-.456-.264-.6a.99.99 0 0 0-.648-.216c-.336 0-.664.152-.984.456-.32.288-.552.792-.696 1.512l-.408 1.896h1.752l-.168.96H46.42l-2.76 12.96c-.32 1.552-.872 2.616-1.656 3.192a4.272 4.272 0 0 1-2.64.888zm-.552-2.136c.64 0 1.096-.624 1.368-1.872l.312-1.392c-.848.288-1.496.616-1.944.984-.464.384-.696.88-.696 1.488 0 .192.096.368.288.528a.963.963 0 0 0 .672.264zM3.36 39.264c-1.088 0-1.92-.264-2.496-.792C.288 37.928 0 37.168 0 36.192c0-.48.056-.936.168-1.368L2.736 22.8l3.552-.48-1.152 5.4c.448-.272.816-.448 1.104-.528.288-.096.576-.144.864-.144 1.888 0 2.832 1.368 2.832 4.104 0 1.104-.216 2.288-.648 3.552a7.44 7.44 0 0 1-2.112 3.216c-.976.896-2.248 1.344-3.816 1.344zm1.344-2.328c.496 0 .96-.304 1.392-.912.432-.624.776-1.392 1.032-2.304.256-.928.384-1.816.384-2.664 0-.64-.112-1.184-.336-1.632-.224-.448-.536-.672-.936-.672-.24 0-.512.04-.816.12-.288.064-.488.168-.6.312l-1.32 6.096a2.275 2.275 0 0 0-.072.552c0 .736.424 1.104 1.272 1.104zm9.632 2.28c-1.184 0-2.12-.304-2.808-.912-.688-.608-1.032-1.568-1.032-2.88 0-1.088.224-2.296.672-3.624a8.473 8.473 0 0 1 2.16-3.432c.992-.976 2.24-1.464 3.744-1.464 2.048 0 3.072 1.28 3.072 3.84v.024a.966.966 0 0 0 .264.024c.528 0 1.136-.136 1.824-.408a9.553 9.553 0 0 0 1.872-1.032l.216.648c-.464.496-1.072.92-1.824 1.272a9.507 9.507 0 0 1-2.424.72c-.128 1.456-.456 2.728-.984 3.816-.528 1.088-1.208 1.928-2.04 2.52-.832.592-1.736.888-2.712.888zm.96-2.16c.384 0 .768-.216 1.152-.648.384-.448.72-1.048 1.008-1.8.288-.768.496-1.616.624-2.544-.432-.096-.648-.432-.648-1.008 0-.656.248-1.088.744-1.296-.032-.528-.112-.888-.24-1.08-.128-.208-.352-.312-.672-.312-.528 0-1.04.384-1.536 1.152-.496.768-.896 1.688-1.2 2.76-.304 1.072-.456 2.016-.456 2.832 0 .768.088 1.288.264 1.56.176.256.496.384.96.384zm8.963 2.208c-.912 0-1.672-.312-2.28-.936-.608-.624-.912-1.6-.912-2.928 0-1.184.232-2.424.696-3.72.48-1.312 1.184-2.416 2.112-3.312.944-.912 2.064-1.368 3.36-1.368.656 0 1.144.112 1.464.336.32.224.48.52.48.888v.168l.264-1.272h3.456l-1.728 8.16a2.97 2.97 0 0 0-.096.768c0 .688.328 1.032.984 1.032.448 0 .832-.208 1.152-.624.336-.416.6-.96.792-1.632h1.008c-.592 1.728-1.328 2.904-2.208 3.528-.864.608-1.736.912-2.616.912-.672 0-1.216-.184-1.632-.552-.4-.384-.64-.936-.72-1.656a6.8 6.8 0 0 1-1.56 1.608c-.56.4-1.232.6-2.016.6zm1.56-2.328c.4 0 .792-.184 1.176-.552.4-.384.672-.904.816-1.56l1.152-5.424c0-.208-.08-.408-.24-.6-.16-.208-.408-.312-.744-.312-.64 0-1.216.376-1.728 1.128-.512.736-.912 1.632-1.2 2.688-.288 1.04-.432 1.96-.432 2.76 0 .8.112 1.312.336 1.536.24.224.528.336.864.336zm9.825-9.816H39.1l-.312 1.488c.544-.48 1.032-.848 1.464-1.104a2.855 2.855 0 0 1 1.44-.384c.512 0 .912.176 1.2.528.304.352.456.776.456 1.272 0 .464-.152.872-.456 1.224-.304.352-.728.528-1.272.528-.352 0-.592-.08-.72-.24-.112-.176-.2-.424-.264-.744a2.203 2.203 0 0 0-.144-.456c-.048-.096-.136-.144-.264-.144-.336 0-.624.072-.864.216-.224.128-.52.36-.888.696l-1.92 9.12H33.1l2.544-12zm10.271 12.144c-.912 0-1.672-.312-2.28-.936-.608-.624-.912-1.6-.912-2.928 0-1.184.232-2.424.696-3.72.48-1.312 1.184-2.416 2.112-3.312.944-.912 2.064-1.368 3.36-1.368.656 0 1.144.112 1.464.336.32.224.48.52.48.888v.096l1.176-5.52 3.552-.48-2.76 12.96c-.064.24-.096.472-.096.696 0 .64.328.96.984.96.288 0 .544-.048.768-.144-.064.8-.352 1.416-.864 1.848-.496.416-1.088.624-1.776.624-.64 0-1.184-.16-1.632-.48-.432-.336-.72-.84-.864-1.512-.96 1.328-2.096 1.992-3.408 1.992zm1.56-2.328c.352 0 .704-.152 1.056-.456.368-.304.64-.728.816-1.272l.096-.384 1.176-5.496c-.144-.56-.472-.84-.984-.84-.64 0-1.216.376-1.728 1.128-.512.736-.912 1.632-1.2 2.688-.288 1.04-.432 1.96-.432 2.76 0 .8.112 1.312.336 1.536.24.224.528.336.864.336z"/></symbol><symbol viewBox="0 0 24 22" id="twitter" xmlns="http://www.w3.org/2000/svg"><g clip-path="url(#ua)"><path d="M23.346 2.42c-.98.588-2.027.98-3.139 1.242a4.838 4.838 0 0 0-3.597-1.57c-2.746 0-4.904 2.29-4.904 5.036 0 .392.065.785.13 1.177C7.716 8.044 4.12 6.016 1.7 2.943a5.466 5.466 0 0 0-.654 2.55c0 1.766.85 3.27 2.224 4.185-.785 0-1.57-.261-2.224-.653v.13c0 2.42 1.7 4.513 3.924 4.97-.392.131-.85.197-1.308.197-.327 0-.654 0-.915-.066.654 2.027 2.42 3.466 4.577 3.532-1.7 1.373-3.793 2.157-6.147 2.157-.392 0-.785 0-1.177-.065a13.597 13.597 0 0 0 7.52 2.289c9.09 0 13.995-7.717 13.995-14.387v-.654c.98-.72 1.831-1.57 2.485-2.616-.85.393-1.831.654-2.812.785.98-.72 1.766-1.7 2.158-2.877z"/></g><defs><clipPath id="ua"><path d="M0 0h24v24H0z"/></clipPath></defs></symbol><symbol viewBox="0 0 24 14" id="vk" xmlns="http://www.w3.org/2000/svg"><path d="M23.87 12.526c0-.066-.066-.13-.066-.13-.393-.72-1.243-1.701-2.42-2.748-.523-.523-.85-.85-.98-1.046-.262-.327-.328-.654-.197-.98.13-.262.458-.785 1.112-1.636.327-.457.588-.784.785-1.046C23.541 3.044 24.195 1.801 24 1.278l-.065-.13c-.066-.197-.197-.262-.393-.328-.196-.065-.458-.065-.785 0H18.9c-.13 0-.13.066-.13.066h-.066l-.065.065c-.066 0-.066.065-.131.13-.066.066-.066.132-.131.197-.392.98-.85 1.962-1.308 2.812-.327.523-.588.98-.85 1.373s-.458.654-.654.85l-.458.458c-.13.13-.261.13-.327.13-.065 0-.13-.064-.196-.064-.13-.066-.196-.197-.261-.327-.066-.131-.131-.262-.131-.458s-.066-.393-.066-.523V1.8c0-.261 0-.458-.065-.588 0-.131-.065-.262-.13-.393-.066-.13-.132-.261-.262-.327l-.393-.196c-.458-.13-.98-.13-1.7-.13-1.57 0-2.55.065-3.008.326C8.37.56 8.24.69 8.109.886c-.13.196-.196.261-.065.327.523.065.85.261 1.046.523l.065.13c.066.131.131.327.197.589.065.262.065.589.13.916a6.279 6.279 0 0 1 0 1.569c-.065.458-.065.785-.13.981-.066.262-.066.458-.197.589l-.13.261c0 .066-.066.066-.066.066-.13.065-.196.065-.327.065-.13 0-.261-.066-.392-.196-.196-.131-.327-.262-.523-.458a3.169 3.169 0 0 1-.589-.85c-.196-.393-.458-.785-.72-1.308l-.195-.392c-.131-.262-.327-.589-.524-1.047-.196-.458-.392-.85-.588-1.308-.066-.13-.196-.261-.327-.392h-.066c-.065-.065-.13-.065-.196-.13-.065 0-.196-.066-.261-.066H.85c-.393 0-.655.13-.786.261v.066C0 1.147 0 1.212 0 1.278c0 .065 0 .196.065.327a54.395 54.395 0 0 0 1.635 3.4c.589 1.112 1.112 1.962 1.504 2.616.458.654.85 1.308 1.308 1.897.458.588.72.98.916 1.111.13.197.261.262.327.393l.327.327c.196.196.523.457.85.72.392.26.785.522 1.308.85a6.105 6.105 0 0 0 1.635.653c.654.196 1.242.262 1.83.196h1.44a1 1 0 0 0 .653-.261l.066-.066c.065-.065.065-.13.065-.261s.066-.196.066-.327c0-.327 0-.654.065-.981.065-.262.13-.523.196-.654.066-.13.196-.262.262-.392.13-.131.196-.131.196-.197.065 0 .065-.065.13-.065.197-.065.459 0 .72.196.262.196.523.458.785.72.261.261.523.588.85.98.327.327.654.654.85.785l.262.131c.196.13.392.196.654.262.261.065.523.13.719.065l3.204-.065c.327 0 .589-.066.72-.131.196-.131.261-.196.327-.327.065-.131.065-.262 0-.458 0 0 0-.13-.066-.196z"/></symbol></svg>
